<mxfile host="app.diagrams.net" modified="2024-01-16T10:10:36.601Z" agent="Mozilla/5.0 (Windows NT 10.0; Win64; x64) AppleWebKit/537.36 (KHTML, like Gecko) Chrome/120.0.0.0 Safari/537.36" etag="fR_TGYM3pxswDuSxqB8L" version="22.1.18" type="github">
  <diagram name="Página-1" id="TUS5gieN1rz3YTIe_Czn">
    <mxGraphModel dx="1050" dy="603" grid="1" gridSize="10" guides="1" tooltips="1" connect="1" arrows="1" fold="1" page="1" pageScale="1" pageWidth="827" pageHeight="1169" math="0" shadow="0">
      <root>
        <mxCell id="0" />
        <mxCell id="1" parent="0" />
        <mxCell id="yeNCh0Bpv_U7AYHqmpKk-1" value="Cliente" style="swimlane;align=center;verticalAlign=middle;childLayout=stackLayout;horizontal=1;startSize=26;horizontalStack=0;resizeParent=1;resizeParentMax=0;resizeLast=0;collapsible=1;marginBottom=0;" vertex="1" parent="1">
          <mxGeometry x="90" y="50" width="260" height="198" as="geometry">
            <mxRectangle x="320" y="80" width="220" height="30" as="alternateBounds" />
          </mxGeometry>
        </mxCell>
        <mxCell id="yeNCh0Bpv_U7AYHqmpKk-3" value="- Título: Texto/String" style="text;strokeColor=none;fillColor=none;align=left;verticalAlign=middle;spacingLeft=4;spacingRight=4;overflow=hidden;rotatable=0;points=[[0,0.5],[1,0.5]];portConstraint=eastwest;" vertex="1" parent="yeNCh0Bpv_U7AYHqmpKk-1">
          <mxGeometry y="26" width="260" height="34" as="geometry" />
        </mxCell>
        <mxCell id="yeNCh0Bpv_U7AYHqmpKk-9" value="- ISBN: Int" style="text;strokeColor=none;fillColor=none;align=left;verticalAlign=middle;spacingLeft=4;spacingRight=4;overflow=hidden;rotatable=0;points=[[0,0.5],[1,0.5]];portConstraint=eastwest;" vertex="1" parent="yeNCh0Bpv_U7AYHqmpKk-1">
          <mxGeometry y="60" width="260" height="34" as="geometry" />
        </mxCell>
        <mxCell id="yeNCh0Bpv_U7AYHqmpKk-4" value="" style="line;strokeWidth=1;fillColor=none;align=left;verticalAlign=middle;spacingTop=-1;spacingLeft=3;spacingRight=3;rotatable=0;labelPosition=right;points=[];portConstraint=eastwest;strokeColor=inherit;" vertex="1" parent="yeNCh0Bpv_U7AYHqmpKk-1">
          <mxGeometry y="94" width="260" height="8" as="geometry" />
        </mxCell>
        <mxCell id="yeNCh0Bpv_U7AYHqmpKk-5" value="+ setListReserva(type List&lt;Reserva&gt;): void" style="text;strokeColor=none;fillColor=none;align=left;verticalAlign=middle;spacingLeft=4;spacingRight=4;overflow=hidden;rotatable=0;points=[[0,0.5],[1,0.5]];portConstraint=eastwest;" vertex="1" parent="yeNCh0Bpv_U7AYHqmpKk-1">
          <mxGeometry y="102" width="260" height="32" as="geometry" />
        </mxCell>
        <mxCell id="yeNCh0Bpv_U7AYHqmpKk-6" value="+ getListReserva(): List&lt;Reserva&gt;" style="text;strokeColor=none;fillColor=none;align=left;verticalAlign=middle;spacingLeft=4;spacingRight=4;overflow=hidden;rotatable=0;points=[[0,0.5],[1,0.5]];portConstraint=eastwest;" vertex="1" parent="yeNCh0Bpv_U7AYHqmpKk-1">
          <mxGeometry y="134" width="260" height="32" as="geometry" />
        </mxCell>
        <mxCell id="yeNCh0Bpv_U7AYHqmpKk-7" value="+ AvalarCliente(type String): void" style="text;strokeColor=none;fillColor=none;align=left;verticalAlign=middle;spacingLeft=4;spacingRight=4;overflow=hidden;rotatable=0;points=[[0,0.5],[1,0.5]];portConstraint=eastwest;" vertex="1" parent="yeNCh0Bpv_U7AYHqmpKk-1">
          <mxGeometry y="166" width="260" height="32" as="geometry" />
        </mxCell>
      </root>
    </mxGraphModel>
  </diagram>
</mxfile>
